<?xml version="1.0" encoding="UTF-8" standalone="no"?>
<!-- Created with Inkscape (http://www.inkscape.org/) -->

<svg
   width="512"
   height="512"
   viewBox="0 0 8.5333333 8.5333333"
   version="1.1"
   id="svg1"
   xml:space="preserve"
   sodipodi:docname="terok-logo-b.svg"
   inkscape:version="1.4.3 (0d15f75042, 2025-12-25)"
   xmlns:inkscape="http://www.inkscape.org/namespaces/inkscape"
   xmlns:sodipodi="http://sodipodi.sourceforge.net/DTD/sodipodi-0.dtd"
   xmlns="http://www.w3.org/2000/svg"
   xmlns:svg="http://www.w3.org/2000/svg"><sodipodi:namedview
     id="namedview1"
     pagecolor="#ffffff"
     bordercolor="#000000"
     borderopacity="0.25"
     inkscape:showpageshadow="2"
     inkscape:pageopacity="0.0"
     inkscape:pagecheckerboard="0"
     inkscape:deskcolor="#d1d1d1"
     inkscape:document-units="mm"
     inkscape:zoom="1"
     inkscape:cx="205"
     inkscape:cy="229"
     inkscape:window-width="2560"
     inkscape:window-height="1371"
     inkscape:window-x="0"
     inkscape:window-y="0"
     inkscape:window-maximized="1"
     inkscape:current-layer="g8"
     showguides="true" /><defs
     id="defs1"><clipPath
       clipPathUnits="userSpaceOnUse"
       id="clipPath2"><rect
         style="fill:#ff0000;stroke-width:0.244115"
         id="rect2"
         width="11.705091"
         height="4.2333326"
         x="-1.6016018"
         y="4.2333331" /></clipPath></defs><style>
    /* Adapts to OS theme when rendered via <img> (panel icons,
       desktop menus).  Light contexts: currentColor falls back to
       the SVG document default (black).  Dark contexts: override
       to white.  Hosts that DO inherit color (inline <svg>) keep
       the currentColor cascade and ignore this rule. */
    @media (prefers-color-scheme: dark) {
      path, circle { fill: #fff !important; }
    }
  </style><g
     inkscape:label="Layer 1"
     inkscape:groupmode="layer"
     id="layer1"
     transform="translate(-0.01752928,-2.517676)"><g
       id="g8"><g
         id="g7"
         transform="matrix(0.9750276,0,0,0.9750276,0.15668254,0.16814953)"><path
           id="path1"
           clip-path="url(#clipPath2)"
           style="display:inline;fill:currentColor;stroke-width:0.520199"
           d="M 4.2509033,0 A 4.2157226,4.2333331 0 0 0 0.03513997,4.2333333 4.2157226,4.2333331 0 0 0 4.2509033,8.4666667 4.2157226,4.2333331 0 0 0 8.4666667,4.2333333 4.2157226,4.2333331 0 0 0 4.2509033,0 Z m -0.01757,0.6692098 A 3.5493082,3.5641349 0 0 1 7.7824707,4.2333333 3.5493082,3.5641349 0 0 1 4.2333333,7.7974569 3.5493082,3.5641349 0 0 1 0.68419596,4.2333333 3.5493082,3.5641349 0 0 1 4.2333333,0.6692098 Z"
           transform="translate(-0.01767611,2.5000815)" /><path
           id="path3"
           style="fill:currentColor;stroke-width:0.264583"
           d="M 0.01746386,5.0709842 V 6.733415 L 0.27429572,8.1886234 C 0.63244453,7.5074094 0.56057369,7.6122258 0.68667365,7.5380171 0.88073817,7.4238118 1.0760016,7.2527912 1.4225461,7.1339074 L 3.3790158,6.9540734 3.3686805,6.733415 3.3790158,6.5127567 1.4225461,6.3329227 C 1.0760016,6.2140389 0.88073817,6.0430183 0.68667365,5.928813 0.56057369,5.8546043 0.37561266,5.7521982 0.01746386,5.0709842 Z" /><path
           id="path4"
           style="fill:currentColor;stroke-width:0.264583"
           d="M 8.4489906,5.0709842 V 6.733415 L 8.1921587,8.1886234 C 7.8340099,7.5074094 7.9058807,7.6122258 7.7797808,7.5380171 7.5857162,7.4238118 7.3904528,7.2527912 7.0439083,7.1339074 L 5.0874386,6.9540734 5.0977739,6.733415 5.0874386,6.5127567 7.0439083,6.3329227 C 7.3904528,6.2140389 7.5857162,6.0430183 7.7797808,5.928813 7.9058807,5.8546043 8.0908417,5.7521982 8.4489906,5.0709842 Z" /><path
           id="path8"
           style="fill:currentColor;stroke-width:0.264583"
           d="M 2.9609535,10.736108 4.2332272,10.9609 5.505501,10.736624 C 5.260989,10.579375 5.1550884,10.467182 5.0936398,10.380573 c -0.025696,-0.02349 -0.029206,-0.04305 -0.05581,-0.08837 v -5.17e-4 C 4.9807266,10.194658 4.909216,10.09699 4.8373247,9.9805985 4.7654334,9.8642065 4.6931615,9.7290904 4.6337196,9.5558182 L 4.4538856,7.5993485 4.2332272,7.6096837 4.0125689,7.5993485 3.8327349,9.5558182 C 3.7138511,9.9023627 3.5428305,10.097625 3.4286252,10.29169 c -0.026892,0.0457 -0.03053,0.0653 -0.056327,0.08888 -0.061408,0.08655 -0.167178,0.198449 -0.4113447,0.355535 z" /></g><g
         id="g6"
         transform="matrix(1.0718021,0,0,1.0718021,-0.32557324,2.123575)"><path
           id="circle6"
           style="fill:currentColor;stroke-width:0.661517"
           d="M 4.3009518,2.517676 A 1.7833502,1.7833502 0 0 0 2.5176103,4.3010174 1.7833502,1.7833502 0 0 0 4.3009518,6.084359 1.7833502,1.7833502 0 0 0 6.0842933,4.3010174 1.7833502,1.7833502 0 0 0 4.3009518,2.517676 Z m 0,0.4576527 A 1.3255681,1.3255681 0 0 1 5.6266407,4.3010174 1.3255681,1.3255681 0 0 1 4.3009518,5.6267063 1.3255681,1.3255681 0 0 1 2.975263,4.3010174 1.3255681,1.3255681 0 0 1 4.3009518,2.9753287 Z" /><circle
           style="fill:currentColor;stroke-width:0.453833"
           id="path6"
           cx="4.300952"
           cy="4.3010173"
           r="0.89348531" /></g></g></g></svg>
